<?xml version="1.0" standalone="no"?>
<!DOCTYPE svg PUBLIC "-//W3C//DTD SVG 20010904//EN" "http://www.w3.org/TR/2001/REC-SVG-20010904/DTD/svg10.dtd">
<svg version="1.0" xmlns="http://www.w3.org/2000/svg"
  viewBox="380 140 650 450"
  preserveAspectRatio="xMidYMid meet">
  <metadata> Created by potrace 1.16, written by Peter Selinger 2001-2019 </metadata>
  <g transform="translate(0.000000,736.000000) scale(0.100000,-0.100000)"
    fill="currentColor" stroke="none">
    <path
      d="M8150 5585 c-179 -40 -381 -133 -587 -271 -132 -89 -292 -206 -292
-214 0 -10 218 -160 232 -160 8 0 20 7 27 15 24 28 278 194 383 250 226 120
412 154 525 96 47 -24 66 -45 94 -106 20 -44 23 -65 23 -180 -1 -108 -5 -148
-28 -233 -120 -462 -499 -1016 -1147 -1676 -313 -319 -560 -533 -795 -692
-225 -151 -433 -254 -615 -304 -98 -27 -259 -33 -326 -13 -65 20 -126 74 -163
143 -77 144 -46 358 94 645 35 72 86 164 113 205 28 41 47 78 44 82 -8 7 -204
92 -237 102 -17 5 -30 -12 -87 -112 -174 -304 -248 -525 -248 -744 0 -125 13
-184 62 -288 74 -154 213 -266 384 -306 108 -25 307 -15 449 24 265 72 595
253 890 486 377 299 834 757 1155 1156 402 502 629 910 712 1282 33 148 33
352 0 458 -54 173 -152 281 -307 340 -78 29 -258 37 -355 15z" />
    <path
      d="M5715 5520 c-237 -43 -413 -176 -523 -395 -126 -252 -121 -654 12
-1059 70 -211 65 -204 171 -232 50 -12 125 -34 168 -48 47 -14 77 -20 74 -13
-3 7 -24 53 -46 104 -146 333 -218 664 -192 880 28 228 92 352 223 430 64 39
190 73 267 73 139 0 339 -48 526 -125 278 -115 514 -260 990 -605 218 -159
578 -410 637 -445 l28 -16 75 114 c41 63 75 117 75 120 0 4 -21 18 -47 34
-109 62 -360 236 -683 473 -528 387 -963 614 -1325 690 -112 24 -348 35 -430
20z" />
    <path
      d="M6608 4506 c-254 -245 -703 -694 -773 -773 l-37 -43 23 -9 c13 -5 73
-32 133 -61 l109 -51 291 294 c160 162 391 391 514 510 122 119 222 219 222
224 -1 8 -212 153 -223 153 -3 0 -120 -110 -259 -244z" />
    <path
      d="M8597 3993 c-24 -38 -56 -89 -71 -115 l-28 -48 69 -31 c298 -135 581
-212 874 -238 136 -12 176 -4 213 40 49 58 43 145 -15 193 -33 28 -41 30 -214
46 -208 19 -460 86 -675 179 -52 22 -98 41 -103 41 -4 0 -27 -30 -50 -67z" />
    <path
      d="M4571 3820 c-81 -19 -123 -115 -84 -189 34 -65 54 -72 224 -82 265
-15 463 -51 692 -124 367 -118 761 -334 1208 -660 l130 -96 104 92 c58 51 102
96 99 100 -8 13 -224 166 -424 300 -258 173 -505 311 -749 419 -195 85 -522
181 -732 214 -147 24 -417 38 -468 26z" />
    <path
      d="M8543 3668 c3 -7 33 -75 66 -150 74 -168 132 -340 162 -479 19 -85
23 -136 23 -284 1 -160 -2 -189 -23 -263 -40 -139 -122 -236 -241 -285 -48
-19 -73 -22 -195 -22 -105 0 -159 5 -215 19 -185 47 -435 164 -663 309 -31 20
-62 37 -68 37 -6 0 -55 -39 -110 -87 -81 -69 -98 -88 -87 -98 29 -27 275 -179
381 -235 374 -198 704 -268 967 -204 82 20 211 81 273 130 84 66 173 201 219
334 28 81 48 230 48 359 0 205 -48 440 -137 678 l-48 125 -125 42 c-69 23
-147 52 -174 64 -57 26 -60 26 -53 10z" />
  </g>
</svg>